<?xml version="1.0" encoding="UTF-8" standalone="no"?>
<svg
   xmlns:dc="http://purl.org/dc/elements/1.1/"
   xmlns:cc="http://creativecommons.org/ns#"
   xmlns:rdf="http://www.w3.org/1999/02/22-rdf-syntax-ns#"
   xmlns:svg="http://www.w3.org/2000/svg"
   xmlns="http://www.w3.org/2000/svg"
   xmlns:sodipodi="http://sodipodi.sourceforge.net/DTD/sodipodi-0.dtd"
   xmlns:inkscape="http://www.inkscape.org/namespaces/inkscape"
   width="800"
   height="800"
   viewBox="0 0 490 230"
   version="1.1"
   id="svg10"
   sodipodi:docname="static_shape_1.svg"
   inkscape:version="0.92.4 (f8dce91, 2019-08-02)">
  <metadata
     id="metadata16">
    <rdf:RDF>
      <cc:Work
         rdf:about="">
        <dc:format>image/svg+xml</dc:format>
        <dc:type
           rdf:resource="http://purl.org/dc/dcmitype/StillImage" />
      </cc:Work>
    </rdf:RDF>
  </metadata>
  <defs
     id="defs14" />
  <sodipodi:namedview
     pagecolor="#ffffff"
     bordercolor="#666666"
     borderopacity="1"
     objecttolerance="10"
     gridtolerance="10"
     guidetolerance="10"
     inkscape:pageopacity="0"
     inkscape:pageshadow="2"
     inkscape:window-width="1867"
     inkscape:window-height="1025"
     id="namedview12"
     showgrid="false"
     inkscape:zoom="2.0203051"
     inkscape:cx="189.78698"
     inkscape:cy="111.65564"
     inkscape:window-x="53"
     inkscape:window-y="27"
     inkscape:window-maximized="1"
     inkscape:current-layer="g8" />
  <g
     id="g8"
     stroke-width="2"
     stroke="#659CC8"
     fill-rule="evenodd"
     fill="none">
    <path
       d="M58.933.562C37.441 34.543 25 74.82 25 118c0 35.607 8.46 69.239 23.478 98.994m386.537 11.956C454.075 196.377 465 158.464 465 118c0-42.9-12.28-82.934-33.516-116.775"
       id="path2"
       stroke-dasharray="31,7,8"
       opacity=".164"
       style="opacity:1;stroke-width:3;stroke-miterlimit:4;stroke-dasharray:24, 6, 3, 6;stroke-dashoffset:0;stroke:#e1314f;stroke-opacity:1" />
    <path
       d="M467.113 194.948C475.463 170.84 480 144.95 480 118c0-22-3.023-43.293-8.676-63.488M27.826 28.06C16.34 55.764 10 86.141 10 118c0 22.158 3.067 43.599 8.798 63.923"
       id="path4"
       stroke-dasharray="3,8,34"
       opacity=".12"
       style="opacity:1;stroke-width:2.5;stroke-miterlimit:4;stroke-dasharray:3.75, 10, 42.50000000000000000;stroke-dashoffset:0;stroke:#c61b38;stroke-opacity:0.98305082" />
    <path
       d="M5.892 69.144A245.116 245.116 0 0 0 1 118c0 13.187 1.046 26.13 3.06 38.749m484.11-18.487c.55-6.681.83-13.439.83-20.262 0-12.898-1-25.562-2.929-37.92"
       id="path6"
       stroke-dasharray="2,6,8"
       opacity=".08"
       style="opacity:1;stroke:#9b001a;stroke-opacity:1" />
  </g>
</svg>
